<svg width="24" height="24" viewBox="0 0 24 24" fill="none" xmlns="http://www.w3.org/2000/svg">
<path d="M14.6196 8.64001H9.38965C8.97965 8.64001 8.63965 8.97002 8.63965 9.38002V14.62C8.63965 15.03 8.97965 15.36 9.38965 15.36H14.6196C15.0296 15.36 15.3696 15.03 15.3696 14.62V9.38002C15.3696 8.97002 15.0296 8.64001 14.6196 8.64001Z" fill="#FCFCFC"/>
<path d="M21.2598 12.75C21.6698 12.75 22.0098 12.41 22.0098 12C22.0098 11.59 21.6698 11.25 21.2598 11.25H19.9498V7.61H21.2598C21.6698 7.61 22.0098 7.28 22.0098 6.86C22.0098 6.45 21.6698 6.11 21.2598 6.11H19.6898C19.3398 5.31 18.6998 4.66001 17.8898 4.32001V2.75C17.8898 2.34 17.5598 2 17.1398 2C16.7298 2 16.3898 2.34 16.3898 2.75V4.06H12.7598V2.75C12.7598 2.34 12.4198 2 12.0098 2C11.5898 2 11.2598 2.34 11.2598 2.75V4.06H7.61977V2.75C7.61977 2.34 7.27977 2 6.86977 2C6.44977 2 6.11977 2.34 6.11977 2.75V4.32001C5.30977 4.66001 4.66978 5.31 4.31978 6.11H2.75977C2.33977 6.11 2.00977 6.45 2.00977 6.86C2.00977 7.28 2.33977 7.61 2.75977 7.61H4.05977V11.25H2.75977C2.33977 11.25 2.00977 11.59 2.00977 12C2.00977 12.41 2.33977 12.75 2.75977 12.75H4.05977V16.39H2.75977C2.33977 16.39 2.00977 16.72 2.00977 17.14C2.00977 17.55 2.33977 17.89 2.75977 17.89H4.31978C4.66978 18.69 5.30977 19.34 6.11977 19.68V21.25C6.11977 21.66 6.44977 22 6.86977 22C7.27977 22 7.61977 21.66 7.61977 21.25V19.94H11.2598V21.25C11.2598 21.66 11.5898 22 12.0098 22C12.4198 22 12.7598 21.66 12.7598 21.25V19.94H16.3898V21.25C16.3898 21.66 16.7298 22 17.1398 22C17.5598 22 17.8898 21.66 17.8898 21.25V19.68C18.6998 19.34 19.3398 18.69 19.6898 17.89H21.2598C21.6698 17.89 22.0098 17.55 22.0098 17.14C22.0098 16.72 21.6698 16.39 21.2598 16.39H19.9498V12.75H21.2598ZM16.8698 14.62C16.8698 15.86 15.8598 16.86 14.6198 16.86H9.38977C8.14977 16.86 7.13977 15.86 7.13977 14.62V9.38C7.13977 8.14001 8.14977 7.14 9.38977 7.14H14.6198C15.8598 7.14 16.8698 8.14001 16.8698 9.38V14.62Z" fill="#FCFCFC"/>
</svg>
