<svg width="24" height="24" viewBox="0 0 24 24" fill="none" xmlns="http://www.w3.org/2000/svg">
<path d="M3.77979 12H9.94978V21.23H5.95979C4.75979 21.23 3.77979 20.25 3.77979 19.05V12V12Z" stroke="#A1A1AA" stroke-width="1.5" stroke-linecap="round" stroke-linejoin="round"/>
<path d="M20.2198 12V19.05C20.2198 20.25 19.2398 21.23 18.0398 21.23H14.0498V12H20.2198Z" stroke="#A1A1AA" stroke-width="1.5" stroke-linecap="round" stroke-linejoin="round"/>
<path d="M4.63 6.84003H9.94V12H2.75V8.72003C2.75 7.68003 3.59 6.84003 4.63 6.84003Z" stroke="#A1A1AA" stroke-width="1.5" stroke-linecap="round" stroke-linejoin="round"/>
<path d="M21.2501 8.72003V12H14.0601V6.84003H19.3701C20.4101 6.84003 21.2501 7.68003 21.2501 8.72003Z" stroke="#A1A1AA" stroke-width="1.5" stroke-linecap="round" stroke-linejoin="round"/>
<path d="M14.0499 6.84003H9.93994V21.23H14.0499V6.84003Z" stroke="#A1A1AA" stroke-width="1.5" stroke-linecap="round" stroke-linejoin="round"/>
<path d="M14.0499 21.23H9.93994V21.25H14.0499V21.23Z" fill="#A1A1AA" stroke="#A1A1AA" stroke-width="1.5" stroke-linecap="round" stroke-linejoin="round"/>
<path d="M12.0199 4.8C12.0199 5.37 11.7899 5.88 11.4199 6.25C11.0499 6.62 10.5399 6.85 9.96992 6.85H9.93993C9.38993 6.84 8.87993 6.61 8.51993 6.25C8.14993 5.88 7.91992 5.37 7.91992 4.8C7.91992 3.67 8.82992 2.75 9.96992 2.75C10.5399 2.75 11.0499 2.98 11.4199 3.35C11.7899 3.72 12.0199 4.23 12.0199 4.8Z" stroke="#A1A1AA" stroke-width="1.5" stroke-linecap="round" stroke-linejoin="round"/>
<path d="M14.0998 2.75C12.9698 2.75 12.0498 3.67 12.0498 4.8C12.0498 5.93 12.9698 6.85 14.0998 6.85C15.2298 6.85 16.1498 5.93 16.1498 4.8C16.1498 3.67 15.2298 2.75 14.0998 2.75Z" stroke="#A1A1AA" stroke-width="1.5" stroke-linecap="round" stroke-linejoin="round"/>
</svg>
